<mxfile host="65bd71144e">
    <diagram id="R5-eaXtfXUetilNxMZ25" name="Page-1">
        <mxGraphModel dx="797" dy="407" grid="1" gridSize="10" guides="1" tooltips="1" connect="1" arrows="1" fold="1" page="1" pageScale="1" pageWidth="850" pageHeight="1100" math="0" shadow="0">
            <root>
                <mxCell id="0"/>
                <mxCell id="1" parent="0"/>
                <mxCell id="9" value="" style="shape=umlLifeline;perimeter=lifelinePerimeter;whiteSpace=wrap;html=1;container=1;dropTarget=0;collapsible=0;recursiveResize=0;outlineConnect=0;portConstraint=eastwest;newEdgeStyle={&quot;curved&quot;:0,&quot;rounded&quot;:0};participant=umlActor;" parent="1" vertex="1">
                    <mxGeometry x="90" y="40" width="20" height="300" as="geometry"/>
                </mxCell>
                <mxCell id="10" value="" style="html=1;points=[[0,0,0,0,5],[0,1,0,0,-5],[1,0,0,0,5],[1,1,0,0,-5]];perimeter=orthogonalPerimeter;outlineConnect=0;targetShapes=umlLifeline;portConstraint=eastwest;newEdgeStyle={&quot;curved&quot;:0,&quot;rounded&quot;:0};" parent="9" vertex="1">
                    <mxGeometry x="5" y="70" width="10" height="80" as="geometry"/>
                </mxCell>
                <mxCell id="11" value="ServerHandler" style="shape=umlLifeline;perimeter=lifelinePerimeter;whiteSpace=wrap;html=1;container=1;dropTarget=0;collapsible=0;recursiveResize=0;outlineConnect=0;portConstraint=eastwest;newEdgeStyle={&quot;curved&quot;:0,&quot;rounded&quot;:0};" parent="1" vertex="1">
                    <mxGeometry x="200" y="40" width="100" height="300" as="geometry"/>
                </mxCell>
                <mxCell id="12" value="" style="html=1;points=[[0,0,0,0,5],[0,1,0,0,-5],[1,0,0,0,5],[1,1,0,0,-5]];perimeter=orthogonalPerimeter;outlineConnect=0;targetShapes=umlLifeline;portConstraint=eastwest;newEdgeStyle={&quot;curved&quot;:0,&quot;rounded&quot;:0};" parent="11" vertex="1">
                    <mxGeometry x="45" y="70" width="10" height="80" as="geometry"/>
                </mxCell>
                <mxCell id="13" value="Down_temp" style="html=1;verticalAlign=bottom;endArrow=block;curved=0;rounded=0;exitX=1;exitY=0;exitDx=0;exitDy=5;exitPerimeter=0;entryX=0;entryY=0;entryDx=0;entryDy=5;entryPerimeter=0;" parent="1" source="10" target="12" edge="1">
                    <mxGeometry width="80" relative="1" as="geometry">
                        <mxPoint x="110" y="120" as="sourcePoint"/>
                        <mxPoint x="249.5" y="120" as="targetPoint"/>
                    </mxGeometry>
                </mxCell>
                <mxCell id="14" value="ClimateHandler" style="shape=umlLifeline;perimeter=lifelinePerimeter;whiteSpace=wrap;html=1;container=1;dropTarget=0;collapsible=0;recursiveResize=0;outlineConnect=0;portConstraint=eastwest;newEdgeStyle={&quot;curved&quot;:0,&quot;rounded&quot;:0};" parent="1" vertex="1">
                    <mxGeometry x="360" y="40" width="100" height="300" as="geometry"/>
                </mxCell>
                <mxCell id="15" value="" style="html=1;points=[[0,0,0,0,5],[0,1,0,0,-5],[1,0,0,0,5],[1,1,0,0,-5]];perimeter=orthogonalPerimeter;outlineConnect=0;targetShapes=umlLifeline;portConstraint=eastwest;newEdgeStyle={&quot;curved&quot;:0,&quot;rounded&quot;:0};" parent="14" vertex="1">
                    <mxGeometry x="45" y="70" width="10" height="80" as="geometry"/>
                </mxCell>
                <mxCell id="16" value="Down_temp" style="html=1;verticalAlign=bottom;endArrow=block;curved=0;rounded=0;exitX=1;exitY=0;exitDx=0;exitDy=5;exitPerimeter=0;entryX=0;entryY=0;entryDx=0;entryDy=5;entryPerimeter=0;" parent="1" source="12" target="15" edge="1">
                    <mxGeometry width="80" relative="1" as="geometry">
                        <mxPoint x="370" y="220" as="sourcePoint"/>
                        <mxPoint x="450" y="220" as="targetPoint"/>
                    </mxGeometry>
                </mxCell>
                <mxCell id="17" value="New_actual_temp" style="html=1;verticalAlign=bottom;endArrow=open;dashed=1;endSize=8;curved=0;rounded=0;exitX=0;exitY=1;exitDx=0;exitDy=-5;exitPerimeter=0;entryX=1;entryY=1;entryDx=0;entryDy=-5;entryPerimeter=0;" parent="1" source="15" target="12" edge="1">
                    <mxGeometry relative="1" as="geometry">
                        <mxPoint x="370" y="189.5" as="sourcePoint"/>
                        <mxPoint x="290" y="189.5" as="targetPoint"/>
                    </mxGeometry>
                </mxCell>
                <mxCell id="18" value="&lt;span style=&quot;color: rgb(0, 0, 0);&quot;&gt;New_actual_temp&lt;/span&gt;" style="html=1;verticalAlign=bottom;endArrow=open;dashed=1;endSize=8;curved=0;rounded=0;exitX=0;exitY=1;exitDx=0;exitDy=-5;exitPerimeter=0;entryX=1;entryY=1;entryDx=0;entryDy=-5;entryPerimeter=0;" parent="1" source="12" target="10" edge="1">
                    <mxGeometry relative="1" as="geometry">
                        <mxPoint x="220" y="189.5" as="sourcePoint"/>
                        <mxPoint x="140" y="189.5" as="targetPoint"/>
                    </mxGeometry>
                </mxCell>
            </root>
        </mxGraphModel>
    </diagram>
</mxfile>